<svg viewBox="-22 -9 198 198" xmlns="http://www.w3.org/2000/svg"><path d="m77.942-9 85.737 49.5v99L77.942 189l-85.737-49.5v-99z" fill="#262626"/><g opacity=".99"><path d="m77.942 0 77.942 45v90l-77.942 45L0 135V45z" fill="#255c99"/><path d="m77.942 18 62.354 36v72l-62.354 36-62.354-36V54z" fill="#262626"/><g fill="#a80030"><path d="M86.318 93.026c-1.77.025.335.912 2.645 1.267a24 24 0 0 0 1.733-1.493c-1.439.353-2.903.36-4.378.226m9.498-2.367c1.053-1.455 1.821-3.047 2.092-4.693-.236 1.173-.873 2.187-1.473 3.256-3.308 2.083-.311-1.237-.002-2.498-3.557 4.476-.488 2.684-.617 3.935m3.505-9.123c.214-3.186-.627-2.179-.91-.963.33.172.591 2.246.91.963M79.608 37.983c.945.169 2.04.299 1.887.524 1.033-.226 1.267-.435-1.887-.524m1.887.524-.668.138.622-.055z"/><path d="M110.942 82.745c.105 2.861-.837 4.25-1.687 6.707l-1.53.765c-1.25 2.43.122 1.543-.774 3.476-1.954 1.737-5.93 5.435-7.201 5.773-.929-.02.629-1.096.833-1.518-2.616 1.797-2.099 2.697-6.099 3.788l-.117-.26c-9.865 4.64-23.568-4.557-23.388-17.106-.105.797-.299.598-.518.92-.509-6.457 2.982-12.942 8.87-15.59 5.758-2.85 12.51-1.68 16.634 2.164-2.265-2.968-6.775-6.115-12.12-5.82-5.236.083-10.134 3.41-11.769 7.022-2.682 1.689-2.993 6.51-4.162 7.392-1.573 11.558 2.958 16.551 10.622 22.425 1.206.813.34.936.503 1.556-2.546-1.193-4.878-2.993-6.795-5.197 1.017 1.49 2.115 2.937 3.534 4.074-2.4-.813-5.608-5.818-6.545-6.021 4.14 7.41 16.792 12.995 23.417 10.224-3.066.113-6.96.063-10.405-1.21-1.446-.745-3.414-2.287-3.062-2.575 9.042 3.377 18.382 2.558 26.205-3.714 1.99-1.55 4.164-4.187 4.793-4.223-.947 1.423.161.684-.566 1.94 1.984-3.198-.861-1.301 2.05-5.522l1.076 1.48c-.4-2.654 3.297-5.878 2.921-10.077.848-1.284.947 1.382.047 4.336 1.248-3.277.329-3.804.65-6.508.346.909.801 1.875 1.035 2.834-.814-3.167.835-5.333 1.242-7.174-.401-.178-1.255 1.4-1.45-2.34.028-1.625.452-.852.615-1.252-.319-.183-1.156-1.429-1.665-3.818.37-.561.987 1.456 1.489 1.538-.323-1.9-.88-3.348-.902-4.805-1.467-3.066-.519.409-1.71-1.317-1.561-4.871 1.296-1.13 1.49-3.344 2.367 3.43 3.717 8.745 4.336 10.947-.473-2.684-1.237-5.285-2.17-7.8.72.302-1.157-5.524.935-1.666-2.235-8.224-9.566-15.909-16.31-19.515.825.756 1.867 1.704 1.492 1.853-3.354-1.997-2.764-2.153-3.244-2.997-2.733-1.112-2.912.09-4.722.002-5.15-2.732-6.143-2.441-10.882-4.152l.216 1.007c-3.412-1.136-3.976.431-7.663.004-.225-.175 1.181-.634 2.338-.803-3.298.436-3.144-.65-6.372.12.796-.558 1.637-.927 2.486-1.402-2.69.164-6.423 1.566-5.27.29-4.388 1.958-12.181 4.707-16.554 8.807l-.138-.919c-2.004 2.406-8.739 7.185-9.275 10.3l-.536.125c-1.043 1.766-1.717 3.767-2.544 5.584-1.364 2.324-2 .894-1.805 1.258-2.683 5.439-4.015 10.009-5.166 13.756.82 1.226.02 7.38.33 12.306-1.347 24.327 17.073 47.946 37.207 53.4 2.951 1.055 7.34 1.014 11.073 1.123-4.405-1.26-4.974-.668-9.264-2.164-3.095-1.457-3.774-3.121-5.966-5.024l.868 1.534c-4.3-1.522-2.5-1.883-5.998-2.991l.927-1.21c-1.394-.106-3.69-2.349-4.32-3.59l-1.524.06c-1.831-2.26-2.807-3.889-2.736-5.15l-.492.877c-.559-.958-6.739-8.475-3.533-6.726-.595-.544-1.387-.886-2.246-2.446l.653-.746c-1.543-1.985-2.84-4.53-2.741-5.378.823 1.112 1.394 1.32 1.96 1.51-3.897-9.668-4.116-.533-7.067-9.841l.624-.05c-.478-.721-.769-1.504-1.154-2.272l.272-2.708c-2.805-3.244-.785-13.792-.38-19.577.28-2.353 2.342-4.857 3.91-8.784l-.956-.164c1.826-3.185 10.424-12.79 14.406-12.295 1.93-2.424-.383-.01-.76-.62 4.237-4.384 5.57-3.097 8.43-3.886 3.083-1.83-2.648.714-1.185-.698 5.331-1.362 3.778-3.096 10.733-3.788.734.418-1.702.645-2.314 1.187 4.442-2.173 14.057-1.679 20.302 1.206 7.246 3.387 15.388 13.397 15.709 22.816l.365.098c-.185 3.744.573 8.074-.74 12.051z"/><path d="m67.004 95.455-.248 1.24c1.163 1.58 2.086 3.292 3.57 4.527-1.068-2.086-1.862-2.948-3.322-5.767m2.75-.108c-.616-.68-.98-1.5-1.388-2.316.39 1.435 1.188 2.667 1.932 3.921zm48.648-10.574-.26.652a31.5 31.5 0 0 1-3.083 9.841 30.9 30.9 0 0 0 3.343-10.493m-38.444-47.64c1.196-.437 2.941-.24 4.21-.528-1.654.139-3.3.222-4.926.431zM37.955 59.47c.276 2.552-1.92 3.543.487 1.86 1.29-2.906-.505-.802-.487-1.86m-2.828 11.813c.554-1.702.655-2.724.867-3.709-1.533 1.959-.706 2.376-.867 3.709"/></g></g></svg>
